<svg xmlns="http://www.w3.org/2000/svg" width="206.506" height="46.25" viewBox="0 0 206.506 46.25">
  <g id="CB_logo_dark" data-name="CB logo dark" transform="translate(-16.494 -4.75)">
    <g id="Group_1240" data-name="Group 1240" transform="translate(17 5)">
      <path id="Path_1095" data-name="Path 1095" d="M113.219,183.631c-.1.1-1.943,1.949-1.384,4.071a2.965,2.965,0,0,0,.7,1.285c1.266,1.315,3.589.937,4.955,0a3.21,3.21,0,0,0,1.241-1.425,3.089,3.089,0,0,0,.062-2.26,3.218,3.218,0,0,0-1.3-1.458,3.96,3.96,0,0,0-.813-.429,3.764,3.764,0,0,0-2.522.043.973.973,0,0,0-.62.583.936.936,0,0,0,.213,1c.408.319,1.177-.113,1.546-.429,1.125-.966.959-2.978.859-4.211a13.017,13.017,0,0,0-1.753-5.472" transform="translate(-94.092 -174.93)" fill="none" stroke="#f6e4e9" stroke-miterlimit="10" stroke-width="1"/>
      <path id="Path_1096" data-name="Path 1096" d="M56.874,193.913a5.446,5.446,0,0,1-2.391,1.2,3.514,3.514,0,0,1-2.871-.3,1.838,1.838,0,0,1-.517-2.172,1.669,1.669,0,0,1,.678-.862,1.754,1.754,0,0,1,.967-.243,2.121,2.121,0,0,1,1.821,1.18,2.211,2.211,0,0,1,.08,1.4,3.487,3.487,0,0,1-.445,1.154,9.046,9.046,0,0,1-2.569,2.162s-.836.3-1.288.423a4.785,4.785,0,0,1-2.391.113c-.462-.111-1.489-.34-1.813-1.145a1.956,1.956,0,0,1,.06-1.4,2.125,2.125,0,0,1,1.037-1.237,2.234,2.234,0,0,1,2.471.524c.836,1.1-.465,3.475-2.072,4.759-2.022,1.612-5.226,2.037-6.058,1.048a1.669,1.669,0,0,1-.279-.6,3.229,3.229,0,0,1,.2-2.323,2.775,2.775,0,0,1,1.793-.637,1.835,1.835,0,0,1,1.251.413,1.883,1.883,0,0,1,.424,1.386,4.008,4.008,0,0,1-.2,1.461,13.628,13.628,0,0,0-1.115,2.247,12.936,12.936,0,0,0-.477,1.5q.143,7.567.289,15.132a1.879,1.879,0,0,0,.708,1.091,2.129,2.129,0,0,0,1.236.413s31.4.281,32.526,0c1.216-.3.1-7.049,0-7.044l-.4-1.275c-2.559-.212-6.033-.491-10.164-.786-1.663-.118-4.038-.288-6.655-.449-3.511-.215-8.265-.465-14.032-.637a1.188,1.188,0,0,0,.065,1.348,1.346,1.346,0,0,0,.854.451l29.538-.748c.08-.38.183-.93.261-1.6.244-2.1.374-3.213-.261-4-.819-1.022-2.522-1.025-3.195-.992-14.873.9-25.768,1.254-25.989.9-.005-.007-.09-.151-.2-.338a2.334,2.334,0,0,1-.319-.637.575.575,0,0,1,.04-.524.6.6,0,0,1,.477-.149s25.989.149,28.061,0,.638-1.327.638-1.327q-3.556-1.137-7.175-2.344-2-.669-3.983-1.35" transform="translate(-41.16 -187.052)" fill="none" stroke="#f6e4e9" stroke-miterlimit="10" stroke-width="1"/>
      <path id="Path_1097" data-name="Path 1097" d="M139.53,222.56" transform="translate(-114.825 -211.125)" fill="none" stroke="#f6e4e9" stroke-miterlimit="10" stroke-width="1"/>
      <path id="Path_1098" data-name="Path 1098" d="M113.26,213.07" transform="translate(-95.152 -203.913)" fill="none" stroke="#f6e4e9" stroke-miterlimit="10" stroke-width="1"/>
      <path id="Path_1099" data-name="Path 1099" d="M98.65,264.25" transform="translate(-84.211 -242.806)" fill="none" stroke="#f6e4e9" stroke-miterlimit="10" stroke-width="1"/>
    </g>
    <text id="Cousland_s_Bakery" data-name="Cousland&apos;s Bakery" transform="translate(59 11)" fill="#fff" font-size="24" font-family="Dancing Script" font-weight="700"><tspan x="0" y="22">Cousland&apos;s </tspan><tspan y="22" fill="#fbbbcd">Bakery</tspan></text>
  </g>
</svg>
